<svg version="1.2" baseProfile="tiny-ps" xmlns="http://www.w3.org/2000/svg" viewBox="0 0 101 100" width="101" height="100">
	<title>Testimonials</title>
	<defs>
		<linearGradient id="grd1" gradientUnits="userSpaceOnUse"  x1="126.25" y1="33.899" x2="-25.25" y2="66.101">
			<stop offset="0" stop-color="#1a90ff"  />
			<stop offset="1" stop-color="#85b5fe"  />
		</linearGradient>
	</defs>
	<style>
		tspan { white-space:pre }
		.shp0 { opacity: 0.302;fill: url(#grd1) } 
		.shp1 { fill: none;stroke: #fefefe;stroke-width: 4 } 
	</style>
	<g id="Testimonials">
		<g id="Group 78">
			<path id="Ellipse 2 copy" class="shp0" d="M50.5 0C78.39 0 101 22.39 101 50C101 77.61 78.39 100 50.5 100C22.61 100 0 77.61 0 50C0 22.39 22.61 0 50.5 0Z" />
			<path id="Ellipse 2" class="shp1" d="M50.5 0C78.39 0 101 22.39 101 50C101 77.61 78.39 100 50.5 100C22.61 100 0 77.61 0 50C0 22.39 22.61 0 50.5 0Z" />
			<path id="Polygon 1" class="shp1" d="M72.95 50L39.79 74.43L39.79 25.57L72.95 50Z" />
		</g>
	</g>
</svg>